<svg width="12" height="9" viewBox="0 0 12 9" fill="none" xmlns="http://www.w3.org/2000/svg">
<path d="M5.51758 7.96277L0.212891 2.65808C0.0852865 2.53048 0.0214844 2.37553 0.0214844 2.19324C0.0214844 2.01095 0.0852865 1.856 0.212891 1.72839L0.814453 1.12683C0.942057 0.999227 1.09701 0.935425 1.2793 0.935425C1.46159 0.917196 1.61654 0.971883 1.74414 1.09949L5.98242 5.33777L10.2207 1.09949C10.3483 0.971883 10.5033 0.917196 10.6855 0.935425C10.8678 0.935425 11.0228 0.999227 11.1504 1.12683L11.752 1.72839C11.8796 1.856 11.9434 2.01095 11.9434 2.19324C11.9434 2.37553 11.8796 2.53048 11.752 2.65808L6.44727 7.96277C6.31966 8.1086 6.16471 8.18152 5.98242 8.18152C5.80013 8.18152 5.64518 8.1086 5.51758 7.96277Z" fill="black"/>
</svg>
