<svg width="28" height="22" viewBox="0 0 28 22" fill="none" xmlns="http://www.w3.org/2000/svg">
<path d="M23.375 13.6719V20.375C23.375 20.6875 23.2656 20.9531 23.0469 21.1719C22.8281 21.3906 22.5625 21.5 22.25 21.5H16.8125C16.6562 21.5 16.5156 21.4375 16.3906 21.3125C16.2969 21.2188 16.25 21.0938 16.25 20.9375V15.6875C16.25 15.5312 16.1875 15.4062 16.0625 15.3125C15.9688 15.1875 15.8438 15.125 15.6875 15.125H12.3125C12.1562 15.125 12.0156 15.1875 11.8906 15.3125C11.7969 15.4062 11.75 15.5312 11.75 15.6875V20.9375C11.75 21.0938 11.6875 21.2188 11.5625 21.3125C11.4688 21.4375 11.3438 21.5 11.1875 21.5H5.75C5.4375 21.5 5.17188 21.3906 4.95312 21.1719C4.73438 20.9531 4.625 20.6875 4.625 20.375V13.6719C4.625 13.4844 4.6875 13.3281 4.8125 13.2031L13.625 5.98438C13.75 5.89062 13.875 5.84375 14 5.84375C14.125 5.84375 14.25 5.89062 14.375 5.98438L23.1875 13.2031C23.3125 13.3281 23.375 13.4844 23.375 13.6719ZM27.3125 10.8125L23.375 7.57812V1.0625C23.375 0.90625 23.3125 0.78125 23.1875 0.6875C23.0938 0.5625 22.9688 0.5 22.8125 0.5H20.1875C20.0312 0.5 19.8906 0.5625 19.7656 0.6875C19.6719 0.78125 19.625 0.90625 19.625 1.0625V4.48438L15.4531 1.01562C15.0156 0.671875 14.5312 0.5 14 0.5C13.4688 0.5 13 0.671875 12.5938 1.01562L0.6875 10.8125C0.59375 10.9062 0.53125 11.0312 0.5 11.1875C0.5 11.3438 0.546875 11.4844 0.640625 11.6094L1.8125 13.0625C1.90625 13.1875 2.03125 13.25 2.1875 13.25C2.34375 13.25 2.48438 13.2031 2.60938 13.1094L13.625 4.0625C13.75 3.96875 13.875 3.92188 14 3.92188C14.125 3.92188 14.25 3.96875 14.375 4.0625L25.3906 13.1094C25.5156 13.2031 25.6562 13.25 25.8125 13.25C25.9688 13.25 26.0938 13.1875 26.1875 13.0625L27.3594 11.6094C27.4531 11.4844 27.4844 11.3438 27.4531 11.1875C27.4531 11.0312 27.4062 10.9062 27.3125 10.8125Z" fill="#3FC1CB"/>
</svg>
