<svg xmlns="http://www.w3.org/2000/svg" viewBox="0 0 250 250"><defs><style>.a{fill:#42c2cb;}.b{fill:#fff;}</style></defs><title>Artboard 1</title><circle class="a" cx="125" cy="125" r="64.56954" transform="translate(-16.90306 230.42069) rotate(-81.60889)"/><path class="b" d="M153.96366,86.26625c-13.05432-8.25684-22.39105,9.92139-22.61029,10.47253-2.32733,4.539-4.24286,11.49-5.43182,16.67194l-17.049-2.51489-.66748,4.58563,16.78369,2.47577c-.4649,2.39783-.70245,3.93964-.70245,3.93964l-.82623,5.05353.04712.007c-.01746.09857-.03394.20209-.05151.3L106.796,124.79988l-.6261,4.5918,16.46185,2.42822c-4.32709,21.84052-7.52786,28.427-10.7518,32.04154-.65564.77338-5.27838,3.86688-7.60413-1.66669-1.62463-3.86536-4.70837-3.33331-4.70837-3.33331-.86981-.08325-4.91443,2.53052,1.4231,6.539,13.05432,8.25677,22.39105-9.92145,22.61035-10.4726,2.32727-4.53894,5.42984-16.80668,6.61881-21.98863l17.1131,2.52429.66742-4.58563-16.84778-2.48517c.4649-2.39783.70245-3.9397.70245-3.9397l.82623-5.05353-.04712-.007c.01746-.09857.03394-.20209.05151-.3L149.34525,121.55l.6261-4.59174L133.5095,114.53c4.32709-21.84052,6.34082-23.11029,9.56476-26.72473.65564-.77344,5.27838-3.86688,7.60413,1.66663,1.62463,3.86536,4.70837,3.33337,4.70837,3.33337C156.25657,92.88844,160.30119,90.27467,153.96366,86.26625Z"/></svg>