<svg width="24" height="18" viewBox="0 0 24 18" fill="none" xmlns="http://www.w3.org/2000/svg">
<path d="M23.25 15H3V0.75C3 0.53125 2.92188 0.359375 2.76562 0.234375C2.64062 0.078125 2.46875 0 2.25 0H0.75C0.53125 0 0.34375 0.078125 0.1875 0.234375C0.0625 0.359375 0 0.53125 0 0.75V16.5C0 16.9062 0.140625 17.2656 0.421875 17.5781C0.734375 17.8594 1.09375 18 1.5 18H23.25C23.4688 18 23.6406 17.9375 23.7656 17.8125C23.9219 17.6562 24 17.4688 24 17.25V15.75C24 15.5312 23.9219 15.3594 23.7656 15.2344C23.6406 15.0781 23.4688 15 23.25 15ZM21.75 1.5H16.2188C15.9062 1.5 15.6406 1.60937 15.4219 1.82812C15.2031 2.04688 15.0938 2.3125 15.0938 2.625C15.0938 2.9375 15.2031 3.20312 15.4219 3.42188L16.9219 4.92188L13.5 8.39062L10.0781 4.92188C9.76562 4.64062 9.40625 4.5 9 4.5C8.59375 4.5 8.23438 4.64062 7.92188 4.92188L4.73438 8.15625C4.57812 8.3125 4.5 8.5 4.5 8.71875C4.5 8.90625 4.57812 9.07812 4.73438 9.23438L5.76562 10.2656C5.92188 10.4219 6.09375 10.5 6.28125 10.5C6.5 10.5 6.6875 10.4219 6.84375 10.2656L9 8.10938L12.4219 11.5781C12.7344 11.8594 13.0938 12 13.5 12C13.9062 12 14.2656 11.8594 14.5781 11.5781L19.0781 7.07812L20.5781 8.57812C20.7969 8.79688 21.0625 8.90625 21.375 8.90625C21.6875 8.90625 21.9531 8.79688 22.1719 8.57812C22.3906 8.35938 22.5 8.09375 22.5 7.78125V2.25C22.5 2.03125 22.4219 1.85938 22.2656 1.73438C22.1406 1.57813 21.9688 1.5 21.75 1.5Z" fill="#95A5A6"/>
</svg>
