<svg width="16" height="16" viewBox="0 0 16 16" fill="none" xmlns="http://www.w3.org/2000/svg">
<path d="M15.75 8C15.75 9.39583 15.3958 10.6875 14.6875 11.875C14 13.0625 13.0625 14 11.875 14.6875C10.6875 15.3958 9.39583 15.75 8 15.75C6.60417 15.75 5.3125 15.3958 4.125 14.6875C2.9375 14 1.98958 13.0625 1.28125 11.875C0.59375 10.6875 0.25 9.39583 0.25 8C0.25 6.60417 0.59375 5.3125 1.28125 4.125C1.98958 2.9375 2.9375 2 4.125 1.3125C5.3125 0.604167 6.60417 0.25 8 0.25C9.39583 0.25 10.6875 0.604167 11.875 1.3125C13.0625 2 14 2.9375 14.6875 4.125C15.3958 5.3125 15.75 6.60417 15.75 8ZM8.21875 2.8125C7.38542 2.8125 6.66667 2.98958 6.0625 3.34375C5.5 3.65625 5 4.14583 4.5625 4.8125C4.5 4.89583 4.47917 4.98958 4.5 5.09375C4.52083 5.17708 4.57292 5.25 4.65625 5.3125L5.75 6.125C5.8125 6.1875 5.89583 6.21875 6 6.21875C6.10417 6.19792 6.1875 6.14583 6.25 6.0625C6.58333 5.66667 6.84375 5.39583 7.03125 5.25C7.32292 5.04167 7.65625 4.9375 8.03125 4.9375C8.38542 4.9375 8.70833 5.04167 9 5.25C9.3125 5.4375 9.46875 5.67708 9.46875 5.96875C9.46875 6.19792 9.375 6.39583 9.1875 6.5625C9.0625 6.66667 8.82292 6.82292 8.46875 7.03125L8.40625 7.0625C7.88542 7.35417 7.52083 7.61458 7.3125 7.84375C6.9375 8.23958 6.75 8.70833 6.75 9.25V9.375C6.75 9.47917 6.78125 9.57292 6.84375 9.65625C6.92708 9.71875 7.02083 9.75 7.125 9.75H8.875C8.97917 9.75 9.0625 9.71875 9.125 9.65625C9.20833 9.57292 9.25 9.47917 9.25 9.375V9.34375C9.25 9.17708 9.33333 9.03125 9.5 8.90625C9.60417 8.82292 9.80208 8.69792 10.0938 8.53125C10.6354 8.19792 11.0208 7.90625 11.25 7.65625C11.6458 7.21875 11.8438 6.66667 11.8438 6C11.8438 5.41667 11.6667 4.88542 11.3125 4.40625C10.9583 3.90625 10.5 3.52083 9.9375 3.25C9.375 2.95833 8.80208 2.8125 8.21875 2.8125ZM8 10.5625C7.60417 10.5625 7.26042 10.7083 6.96875 11C6.69792 11.2708 6.5625 11.6042 6.5625 12C6.5625 12.3958 6.69792 12.7396 6.96875 13.0312C7.26042 13.3021 7.60417 13.4375 8 13.4375C8.39583 13.4375 8.72917 13.3021 9 13.0312C9.29167 12.7396 9.4375 12.3958 9.4375 12C9.4375 11.6042 9.29167 11.2708 9 11C8.72917 10.7083 8.39583 10.5625 8 10.5625Z" fill="#ccc"/>
</svg>
