<svg width="16" height="16" viewBox="0 0 16 16" fill="none" xmlns="http://www.w3.org/2000/svg">
<path d="M15.7812 13.8438L12.6562 10.7188C12.5104 10.5729 12.3333 10.5 12.125 10.5H11.625C12.5417 9.33333 13 8 13 6.5C13 5.3125 12.7083 4.22917 12.125 3.25C11.5417 2.25 10.75 1.45833 9.75 0.875C8.77083 0.291667 7.6875 0 6.5 0C5.3125 0 4.21875 0.291667 3.21875 0.875C2.23958 1.45833 1.45833 2.25 0.875 3.25C0.291667 4.22917 0 5.3125 0 6.5C0 7.6875 0.291667 8.78125 0.875 9.78125C1.45833 10.7604 2.23958 11.5417 3.21875 12.125C4.21875 12.7083 5.3125 13 6.5 13C8 13 9.33333 12.5417 10.5 11.625V12.125C10.5 12.3333 10.5729 12.5104 10.7188 12.6562L13.8438 15.7812C13.9896 15.9271 14.1667 16 14.375 16C14.5833 16 14.7604 15.9271 14.9062 15.7812L15.7812 14.9062C15.9271 14.7604 16 14.5833 16 14.375C16 14.1667 15.9271 13.9896 15.7812 13.8438ZM6.5 10.5C5.77083 10.5 5.09375 10.3229 4.46875 9.96875C3.86458 9.61458 3.38542 9.13542 3.03125 8.53125C2.67708 7.90625 2.5 7.22917 2.5 6.5C2.5 5.77083 2.67708 5.10417 3.03125 4.5C3.38542 3.875 3.86458 3.38542 4.46875 3.03125C5.09375 2.67708 5.77083 2.5 6.5 2.5C7.22917 2.5 7.89583 2.67708 8.5 3.03125C9.125 3.38542 9.61458 3.875 9.96875 4.5C10.3229 5.10417 10.5 5.77083 10.5 6.5C10.5 7.22917 10.3229 7.90625 9.96875 8.53125C9.61458 9.13542 9.125 9.61458 8.5 9.96875C7.89583 10.3229 7.22917 10.5 6.5 10.5Z" fill="#BDBDBD"/>
</svg>
