<svg width="10" height="14" viewBox="0 0 10 14" fill="none" xmlns="http://www.w3.org/2000/svg">
<path d="M1.28125 8H8.71875C8.92708 8 9.10417 8.07292 9.25 8.21875C9.39583 8.36458 9.46875 8.54167 9.46875 8.75C9.46875 8.95833 9.39583 9.13542 9.25 9.28125L5.53125 13C5.38542 13.1458 5.20833 13.2188 5 13.2188C4.79167 13.2188 4.61458 13.1458 4.46875 13L0.75 9.28125C0.604167 9.13542 0.53125 8.95833 0.53125 8.75C0.53125 8.54167 0.604167 8.36458 0.75 8.21875C0.895833 8.07292 1.07292 8 1.28125 8ZM9.25 4.71875L5.53125 1C5.38542 0.854167 5.20833 0.78125 5 0.78125C4.79167 0.78125 4.61458 0.854167 4.46875 1L0.75 4.71875C0.604167 4.86458 0.53125 5.04167 0.53125 5.25C0.53125 5.45833 0.604167 5.63542 0.75 5.78125C0.895833 5.92708 1.07292 6 1.28125 6H8.71875C8.92708 6 9.10417 5.92708 9.25 5.78125C9.39583 5.63542 9.46875 5.45833 9.46875 5.25C9.46875 5.04167 9.39583 4.86458 9.25 4.71875Z" fill="#BDBDBD"/>
</svg>
