<svg width="24" height="22" viewBox="0 0 24 22" fill="none" xmlns="http://www.w3.org/2000/svg">
<path d="M22.5 6.5H1.5C1.09375 6.5 0.734375 6.35938 0.421875 6.07812C0.140625 5.76562 0 5.40625 0 5V2C0 1.59375 0.140625 1.25 0.421875 0.96875C0.734375 0.65625 1.09375 0.5 1.5 0.5H22.5C22.9062 0.5 23.25 0.65625 23.5312 0.96875C23.8438 1.25 24 1.59375 24 2V5C24 5.40625 23.8438 5.76562 23.5312 6.07812C23.25 6.35938 22.9062 6.5 22.5 6.5ZM20.25 2.375C19.9375 2.375 19.6719 2.48437 19.4531 2.70312C19.2344 2.92188 19.125 3.1875 19.125 3.5C19.125 3.8125 19.2344 4.07812 19.4531 4.29688C19.6719 4.51563 19.9375 4.625 20.25 4.625C20.5625 4.625 20.8281 4.51563 21.0469 4.29688C21.2656 4.07812 21.375 3.8125 21.375 3.5C21.375 3.1875 21.2656 2.92188 21.0469 2.70312C20.8281 2.48437 20.5625 2.375 20.25 2.375ZM17.25 2.375C16.9375 2.375 16.6719 2.48437 16.4531 2.70312C16.2344 2.92188 16.125 3.1875 16.125 3.5C16.125 3.8125 16.2344 4.07812 16.4531 4.29688C16.6719 4.51563 16.9375 4.625 17.25 4.625C17.5625 4.625 17.8281 4.51563 18.0469 4.29688C18.2656 4.07812 18.375 3.8125 18.375 3.5C18.375 3.1875 18.2656 2.92188 18.0469 2.70312C17.8281 2.48437 17.5625 2.375 17.25 2.375ZM22.5 14H1.5C1.09375 14 0.734375 13.8594 0.421875 13.5781C0.140625 13.2656 0 12.9062 0 12.5V9.5C0 9.09375 0.140625 8.75 0.421875 8.46875C0.734375 8.15625 1.09375 8 1.5 8H22.5C22.9062 8 23.25 8.15625 23.5312 8.46875C23.8438 8.75 24 9.09375 24 9.5V12.5C24 12.9062 23.8438 13.2656 23.5312 13.5781C23.25 13.8594 22.9062 14 22.5 14ZM20.25 9.875C19.9375 9.875 19.6719 9.98438 19.4531 10.2031C19.2344 10.4219 19.125 10.6875 19.125 11C19.125 11.3125 19.2344 11.5781 19.4531 11.7969C19.6719 12.0156 19.9375 12.125 20.25 12.125C20.5625 12.125 20.8281 12.0156 21.0469 11.7969C21.2656 11.5781 21.375 11.3125 21.375 11C21.375 10.6875 21.2656 10.4219 21.0469 10.2031C20.8281 9.98438 20.5625 9.875 20.25 9.875ZM17.25 9.875C16.9375 9.875 16.6719 9.98438 16.4531 10.2031C16.2344 10.4219 16.125 10.6875 16.125 11C16.125 11.3125 16.2344 11.5781 16.4531 11.7969C16.6719 12.0156 16.9375 12.125 17.25 12.125C17.5625 12.125 17.8281 12.0156 18.0469 11.7969C18.2656 11.5781 18.375 11.3125 18.375 11C18.375 10.6875 18.2656 10.4219 18.0469 10.2031C17.8281 9.98438 17.5625 9.875 17.25 9.875ZM22.5 21.5H1.5C1.09375 21.5 0.734375 21.3438 0.421875 21.0312C0.140625 20.75 0 20.4062 0 20V17C0 16.5938 0.140625 16.25 0.421875 15.9688C0.734375 15.6562 1.09375 15.5 1.5 15.5H22.5C22.9062 15.5 23.25 15.6562 23.5312 15.9688C23.8438 16.25 24 16.5938 24 17V20C24 20.4062 23.8438 20.75 23.5312 21.0312C23.25 21.3438 22.9062 21.5 22.5 21.5ZM20.25 17.375C19.9375 17.375 19.6719 17.4844 19.4531 17.7031C19.2344 17.9219 19.125 18.1875 19.125 18.5C19.125 18.8125 19.2344 19.0781 19.4531 19.2969C19.6719 19.5156 19.9375 19.625 20.25 19.625C20.5625 19.625 20.8281 19.5156 21.0469 19.2969C21.2656 19.0781 21.375 18.8125 21.375 18.5C21.375 18.1875 21.2656 17.9219 21.0469 17.7031C20.8281 17.4844 20.5625 17.375 20.25 17.375ZM17.25 17.375C16.9375 17.375 16.6719 17.4844 16.4531 17.7031C16.2344 17.9219 16.125 18.1875 16.125 18.5C16.125 18.8125 16.2344 19.0781 16.4531 19.2969C16.6719 19.5156 16.9375 19.625 17.25 19.625C17.5625 19.625 17.8281 19.5156 18.0469 19.2969C18.2656 19.0781 18.375 18.8125 18.375 18.5C18.375 18.1875 18.2656 17.9219 18.0469 17.7031C17.8281 17.4844 17.5625 17.375 17.25 17.375Z" fill="#95A5A6"/>
</svg>
